<mxfile host="app.diagrams.net" modified="2022-11-21T14:08:19.780Z" agent="5.0 (Windows NT 10.0; Win64; x64) AppleWebKit/537.36 (KHTML, like Gecko) Chrome/107.0.0.0 Safari/537.36 Edg/107.0.1418.52" etag="Rnev1T0yvIjsd6I-eULv" version="20.5.3" type="github">
  <diagram id="YVSJkNlWMyC7T0AATq12" name="第 1 页">
    <mxGraphModel dx="992" dy="571" grid="1" gridSize="10" guides="1" tooltips="1" connect="1" arrows="1" fold="1" page="1" pageScale="1" pageWidth="827" pageHeight="1169" math="0" shadow="0">
      <root>
        <mxCell id="0" />
        <mxCell id="1" parent="0" />
        <mxCell id="vOHCpMQJq3mgXLMrVpzU-1" value="" style="rounded=1;whiteSpace=wrap;html=1;" vertex="1" parent="1">
          <mxGeometry x="390" y="240" width="120" height="60" as="geometry" />
        </mxCell>
        <mxCell id="vOHCpMQJq3mgXLMrVpzU-2" value="" style="rounded=0;whiteSpace=wrap;html=1;" vertex="1" parent="1">
          <mxGeometry x="130" y="240" width="120" height="60" as="geometry" />
        </mxCell>
        <mxCell id="vOHCpMQJq3mgXLMrVpzU-3" value="" style="strokeWidth=2;html=1;shape=mxgraph.flowchart.annotation_1;align=left;pointerEvents=1;" vertex="1" parent="1">
          <mxGeometry x="400" y="400" width="120" height="50" as="geometry" />
        </mxCell>
        <mxCell id="vOHCpMQJq3mgXLMrVpzU-4" value="" style="strokeWidth=2;html=1;shape=mxgraph.flowchart.annotation_1;align=left;pointerEvents=1;" vertex="1" parent="1">
          <mxGeometry x="620" y="240" width="150" height="60" as="geometry" />
        </mxCell>
        <mxCell id="vOHCpMQJq3mgXLMrVpzU-5" value="" style="endArrow=classic;html=1;rounded=0;" edge="1" parent="1">
          <mxGeometry width="50" height="50" relative="1" as="geometry">
            <mxPoint x="380" y="260" as="sourcePoint" />
            <mxPoint x="260" y="260" as="targetPoint" />
          </mxGeometry>
        </mxCell>
        <mxCell id="vOHCpMQJq3mgXLMrVpzU-6" value="" style="endArrow=classic;html=1;rounded=0;" edge="1" parent="1">
          <mxGeometry width="50" height="50" relative="1" as="geometry">
            <mxPoint x="260" y="290" as="sourcePoint" />
            <mxPoint x="380" y="290" as="targetPoint" />
          </mxGeometry>
        </mxCell>
        <mxCell id="vOHCpMQJq3mgXLMrVpzU-7" value="读者" style="text;html=1;strokeColor=none;fillColor=none;align=center;verticalAlign=middle;whiteSpace=wrap;rounded=0;" vertex="1" parent="1">
          <mxGeometry x="160" y="250" width="60" height="30" as="geometry" />
        </mxCell>
        <mxCell id="vOHCpMQJq3mgXLMrVpzU-8" value="图书馆管理系统" style="text;html=1;strokeColor=none;fillColor=none;align=center;verticalAlign=middle;whiteSpace=wrap;rounded=0;" vertex="1" parent="1">
          <mxGeometry x="400" y="255" width="100" height="30" as="geometry" />
        </mxCell>
        <mxCell id="vOHCpMQJq3mgXLMrVpzU-9" value="读者资料" style="text;html=1;strokeColor=none;fillColor=none;align=center;verticalAlign=middle;whiteSpace=wrap;rounded=0;" vertex="1" parent="1">
          <mxGeometry x="665" y="255" width="60" height="30" as="geometry" />
        </mxCell>
        <mxCell id="vOHCpMQJq3mgXLMrVpzU-10" value="图书" style="text;html=1;strokeColor=none;fillColor=none;align=center;verticalAlign=middle;whiteSpace=wrap;rounded=0;" vertex="1" parent="1">
          <mxGeometry x="420" y="410" width="60" height="30" as="geometry" />
        </mxCell>
        <mxCell id="vOHCpMQJq3mgXLMrVpzU-11" value="图书借阅信息" style="text;html=1;strokeColor=none;fillColor=none;align=center;verticalAlign=middle;whiteSpace=wrap;rounded=0;" vertex="1" parent="1">
          <mxGeometry x="400" y="340" width="60" height="30" as="geometry" />
        </mxCell>
        <mxCell id="vOHCpMQJq3mgXLMrVpzU-12" value="" style="endArrow=classic;html=1;rounded=0;entryX=0.5;entryY=0;entryDx=0;entryDy=0;entryPerimeter=0;exitX=0.577;exitY=1.05;exitDx=0;exitDy=0;exitPerimeter=0;" edge="1" parent="1" source="vOHCpMQJq3mgXLMrVpzU-1" target="vOHCpMQJq3mgXLMrVpzU-3">
          <mxGeometry width="50" height="50" relative="1" as="geometry">
            <mxPoint x="460" y="310" as="sourcePoint" />
            <mxPoint x="440" y="280" as="targetPoint" />
          </mxGeometry>
        </mxCell>
        <mxCell id="vOHCpMQJq3mgXLMrVpzU-13" value="图书借阅信息" style="text;html=1;strokeColor=none;fillColor=none;align=center;verticalAlign=middle;whiteSpace=wrap;rounded=0;" vertex="1" parent="1">
          <mxGeometry x="530" y="250" width="60" height="30" as="geometry" />
        </mxCell>
        <mxCell id="vOHCpMQJq3mgXLMrVpzU-14" value="" style="endArrow=classic;html=1;rounded=0;" edge="1" parent="1">
          <mxGeometry width="50" height="50" relative="1" as="geometry">
            <mxPoint x="520" y="290" as="sourcePoint" />
            <mxPoint x="610" y="290" as="targetPoint" />
          </mxGeometry>
        </mxCell>
        <mxCell id="vOHCpMQJq3mgXLMrVpzU-15" value="书单" style="text;html=1;strokeColor=none;fillColor=none;align=center;verticalAlign=middle;whiteSpace=wrap;rounded=0;" vertex="1" parent="1">
          <mxGeometry x="290" y="230" width="60" height="30" as="geometry" />
        </mxCell>
        <mxCell id="vOHCpMQJq3mgXLMrVpzU-16" value="图书" style="text;html=1;strokeColor=none;fillColor=none;align=center;verticalAlign=middle;whiteSpace=wrap;rounded=0;" vertex="1" parent="1">
          <mxGeometry x="290" y="290" width="60" height="30" as="geometry" />
        </mxCell>
      </root>
    </mxGraphModel>
  </diagram>
</mxfile>
